<svg width="246" height="220" viewBox="0 0 246 220" fill="none" xmlns="http://www.w3.org/2000/svg">
<g clip-path="url(#clip0_12490_80904)">
<mask id="mask0_12490_80904" style="mask-type:luminance" maskUnits="userSpaceOnUse" x="0" y="0" width="246" height="220">
<path d="M238 0H8C3.58172 0 0 3.58172 0 8V212C0 216.418 3.58172 220 8 220H238C242.418 220 246 216.418 246 212V8C246 3.58172 242.418 0 238 0Z" fill="white"/>
</mask>
<g mask="url(#mask0_12490_80904)">
<mask id="mask1_12490_80904" style="mask-type:luminance" maskUnits="userSpaceOnUse" x="-1" y="-3" width="248" height="248">
<path d="M247 -3H-1V245H247V-3Z" fill="white"/>
</mask>
<g mask="url(#mask1_12490_80904)">
<path d="M247 -3H-1V245H247V-3Z" fill="#EBEEFF"/>
<mask id="mask2_12490_80904" style="mask-type:alpha" maskUnits="userSpaceOnUse" x="-158" y="-25" width="416" height="267">
<path d="M78.606 233.464C61.7955 243.866 40.4965 243.93 23.6235 233.628L-145.137 130.588C-161.665 120.496 -161.693 96.6764 -145.188 86.5466L22.4583 -16.3473C39.3061 -26.6862 60.6051 -26.6739 77.4383 -16.3105L244.739 86.6797C261.157 96.7878 261.187 120.475 244.789 130.621L78.606 233.464Z" fill="url(#paint0_linear_12490_80904)"/>
</mask>
<g mask="url(#mask2_12490_80904)">
<path d="M20.915 233.464C37.7255 243.866 59.0244 243.93 75.8975 233.628L244.659 130.588C261.187 120.496 261.214 96.6764 244.709 86.5466L77.0626 -16.3473C60.2148 -26.6862 38.9158 -26.6739 22.0826 -16.3105L-145.217 86.6797C-161.636 96.7878 -161.665 120.475 -145.267 130.621L20.915 233.464Z" fill="#FF67CC"/>
</g>
<mask id="mask3_12490_80904" style="mask-type:alpha" maskUnits="userSpaceOnUse" x="8" y="-86" width="231" height="244">
<path d="M237.915 36.2847C242.029 -31.0001 194.07 -85.6303 130.795 -85.7352C67.5201 -85.8401 12.89 -31.38 8.77544 35.9048C4.66093 103.19 52.6202 157.82 115.895 157.925C179.17 158.03 233.8 103.57 237.915 36.2847Z" fill="url(#paint1_radial_12490_80904)"/>
</mask>
<g mask="url(#mask3_12490_80904)">
<path d="M245.071 2.11345C229.915 -61.6152 163.113 -98.1384 95.8662 -79.4635C28.6193 -60.7886 -13.6083 6.01269 1.54826 69.7413C16.7048 133.47 83.5061 169.993 150.753 151.318C218 132.643 260.228 65.842 245.071 2.11345Z" fill="#EEFBFB"/>
</g>
<mask id="mask4_12490_80904" style="mask-type:alpha" maskUnits="userSpaceOnUse" x="109" y="-4" width="263" height="263">
<path d="M166.599 20.0165C107.01 60.962 91.8968 142.461 132.843 202.05C173.788 261.638 255.287 276.752 314.876 235.806C374.464 194.861 389.578 113.362 348.632 53.7731C307.687 -5.81557 226.188 -20.9289 166.599 20.0165Z" fill="url(#paint2_linear_12490_80904)"/>
</mask>
<g mask="url(#mask4_12490_80904)">
<path d="M240.736 258.823C313.036 258.823 371.647 200.212 371.647 127.911C371.647 55.611 313.036 -3 240.736 -3C168.435 -3 109.824 55.611 109.824 127.911C109.824 200.212 168.435 258.823 240.736 258.823Z" fill="#EB1000"/>
</g>
<mask id="mask5_12490_80904" style="mask-type:alpha" maskUnits="userSpaceOnUse" x="-126" y="68" width="561" height="253">
<path d="M308.344 68.3388C273.481 68.3388 241.901 82.4488 219.037 105.212C173.309 150.816 135.397 150.855 89.6685 105.329C66.8043 82.4488 35.1853 68.2998 0.283142 68.2998C-69.4819 68.3388 -125.998 124.701 -125.998 194.276C-125.998 263.852 -69.4819 320.175 0.283142 320.175C35.2635 320.175 66.8824 305.987 89.7466 283.107C135.436 237.659 173.309 237.698 219.037 283.302C241.901 306.104 273.481 320.175 308.344 320.175C378.07 320.175 434.586 263.813 434.586 194.276C434.586 124.74 378.07 68.3388 308.344 68.3388Z" fill="url(#paint3_linear_12490_80904)"/>
</mask>
<g mask="url(#mask5_12490_80904)">
<path d="M308.344 68.3388C273.481 68.3388 241.901 82.4488 219.037 105.212C173.309 150.816 135.397 150.855 89.6685 105.329C66.8043 82.4488 35.1853 68.2998 0.283142 68.2998C-69.4819 68.3388 -125.998 124.701 -125.998 194.276C-125.998 263.852 -69.4819 320.175 0.283142 320.175C35.2635 320.175 66.8824 305.987 89.7466 283.107C135.436 237.659 173.309 237.698 219.037 283.302C241.901 306.104 273.481 320.175 308.344 320.175C378.07 320.175 434.586 263.813 434.586 194.276C434.586 124.74 378.07 68.3388 308.344 68.3388Z" fill="#7155FA"/>
</g>
<mask id="mask6_12490_80904" style="mask-type:alpha" maskUnits="userSpaceOnUse" x="-134" y="-12" width="243" height="242">
<path d="M108.523 110.161C109.195 43.4435 55.6545 -11.1867 -11.0634 -11.8585C-77.7814 -12.5302 -132.412 41.0108 -133.084 107.729C-133.755 174.447 -80.2141 229.077 -13.4961 229.749C53.2218 230.42 107.852 176.879 108.523 110.161Z" fill="url(#paint4_radial_12490_80904)"/>
</mask>
<g mask="url(#mask6_12490_80904)">
<path d="M103.903 75.7922C85.6856 11.606 18.8844 -25.659 -45.3018 -7.44167C-109.488 10.7757 -146.753 77.577 -128.536 141.763C-110.318 205.949 -43.517 243.214 20.6692 224.997C84.8553 206.78 122.12 139.978 103.903 75.7922Z" fill="#FFF197"/>
</g>
</g>
</g>
</g>
<defs>
<linearGradient id="paint0_linear_12490_80904" x1="25.7375" y1="174.863" x2="232.662" y2="178.35" gradientUnits="userSpaceOnUse">
<stop offset="0.15625"/>
<stop offset="0.599632" stop-opacity="0"/>
</linearGradient>
<radialGradient id="paint1_radial_12490_80904" cx="0" cy="0" r="1" gradientUnits="userSpaceOnUse" gradientTransform="translate(123.005 36.3369) rotate(42.2309) scale(110.473 118.502)">
<stop/>
<stop offset="1" stop-opacity="0"/>
</radialGradient>
<linearGradient id="paint2_linear_12490_80904" x1="211.747" y1="199.088" x2="263.711" y2="7.88755" gradientUnits="userSpaceOnUse">
<stop/>
<stop offset="1" stop-opacity="0"/>
</linearGradient>
<linearGradient id="paint3_linear_12490_80904" x1="364.836" y1="172.279" x2="-107.914" y2="355.05" gradientUnits="userSpaceOnUse">
<stop stop-color="#231F20"/>
<stop offset="1" stop-color="#231F20" stop-opacity="0"/>
</linearGradient>
<radialGradient id="paint4_radial_12490_80904" cx="0" cy="0" r="1" gradientUnits="userSpaceOnUse" gradientTransform="translate(-12.6247 109.182) rotate(39.4897) scale(116.992 116.992)">
<stop/>
<stop offset="1" stop-opacity="0"/>
</radialGradient>
<clipPath id="clip0_12490_80904">
<rect width="246" height="220" fill="white"/>
</clipPath>
</defs>
</svg>
